<?xml version="1.0" standalone="no"?>
<!DOCTYPE svg PUBLIC "-//W3C//DTD SVG 20010904//EN"
 "http://www.w3.org/TR/2001/REC-SVG-20010904/DTD/svg10.dtd">
<svg version="1.0" xmlns="http://www.w3.org/2000/svg"
 width="1617.000000pt" height="1223.000000pt" viewBox="0 0 1617.000000 1223.000000"
 preserveAspectRatio="xMidYMid meet">
<metadata>
Created by potrace 1.16, written by Peter Selinger 2001-2019
</metadata>
<g transform="translate(0.000000,1223.000000) scale(0.100000,-0.100000)"
fill="#000000" stroke="none">
<path d="M0 6115 l0 -6115 8085 0 8085 0 0 6115 0 6115 -8085 0 -8085 0 0
-6115z m5531 3515 c565 -57 1078 -328 1446 -765 89 -105 204 -285 273 -427
156 -319 229 -661 217 -1013 -13 -383 -123 -745 -322 -1059 -45 -72 -53 -92
-43 -101 7 -7 217 -171 466 -365 267 -208 459 -364 467 -381 36 -69 1 -147
-75 -170 -33 -10 -44 -9 -77 7 -21 11 -236 174 -478 363 -242 189 -446 348
-452 354 -9 6 -38 -16 -101 -80 -569 -578 -1423 -783 -2197 -528 -781 257
-1343 938 -1451 1759 -22 168 -15 496 15 652 64 338 201 650 402 916 82 109
262 293 369 378 433 345 1000 514 1541 460z m5974 -195 l0 -190 -927 -3 -928
-2 0 -725 0 -725 633 -2 632 -3 0 -170 0 -170 -632 -3 -633 -2 0 -965 0 -965
50 0 c49 0 50 -1 50 -30 l0 -30 -300 0 -300 0 0 30 c0 30 1 30 55 30 l55 0 0
1865 0 1864 -67 3 -68 3 -3 180 c-1 98 0 185 2 192 4 11 232 13 1193 11 l1188
-3 0 -190z m2315 -4745 c0 -7 -1917 -10 -5730 -10 -3813 0 -5730 3 -5730 10 0
7 1917 10 5730 10 3813 0 5730 -3 5730 -10z m-5629 -1078 l115 -307 42 -9 c76
-17 44 -26 -93 -26 -134 0 -176 12 -89 25 29 4 43 11 40 18 -2 7 -17 49 -32
95 l-28 83 -135 -3 -135 -3 -33 -92 -32 -92 44 -7 c79 -11 48 -24 -60 -24
-105 0 -139 12 -67 23 l38 7 103 287 c57 159 108 298 112 311 7 18 16 22 51
22 l43 0 116 -308z m-1231 288 c0 -10 -23 -17 -70 -22 l-25 -3 0 -290 0 -290
139 2 c92 2 142 7 147 14 4 7 12 38 18 70 7 33 16 59 22 59 5 0 9 -40 9 -90
l0 -90 -255 0 c-141 0 -255 4 -255 9 0 10 34 21 68 21 l22 0 -2 292 c-3 284
-4 293 -23 296 -47 7 -65 13 -65 22 0 6 53 10 135 10 82 0 135 -4 135 -10z
m2352 -11 c57 -19 90 -59 95 -116 6 -67 -20 -111 -81 -142 l-49 -24 46 -12
c58 -15 93 -38 117 -78 35 -57 21 -146 -31 -194 -50 -45 -96 -53 -323 -53
-140 0 -206 4 -196 10 8 5 27 10 43 10 l27 0 0 294 0 294 -40 7 c-22 4 -40 11
-40 17 0 15 384 4 432 -13z"/>
<path d="M5205 9393 c-489 -38 -928 -244 -1255 -589 -548 -577 -677 -1436
-323 -2149 288 -581 845 -971 1493 -1046 161 -18 425 -6 580 26 305 64 568
186 815 380 99 78 230 209 221 223 -3 5 -207 167 -453 360 -247 192 -456 358
-465 368 -44 50 -44 115 2 164 36 39 89 48 135 24 19 -11 238 -178 487 -373
l452 -354 18 23 c40 50 130 222 177 340 373 933 -38 1988 -944 2421 -286 137
-642 206 -940 182z"/>
<path d="M7948 3685 c-30 -85 -53 -157 -50 -160 8 -8 220 -6 225 3 5 9 -105
312 -114 312 -3 0 -31 -70 -61 -155z"/>
<path d="M9050 3751 l0 -131 86 0 c137 0 179 32 178 136 0 86 -37 111 -174
121 l-90 6 0 -132z"/>
<path d="M9050 3447 l0 -147 106 0 c160 0 206 32 208 146 1 99 -46 131 -208
141 l-106 6 0 -146z"/>
</g>
</svg>
